<svg viewBox="0 0 96 96" xmlns="http://www.w3.org/2000/svg" xmlns:xlink="http://www.w3.org/1999/xlink" id="Icons_Cupcake" overflow="hidden"><path d="M68 53.8C65.5 56.4 61.9 58 58 58 54.1 58 50.5 56.4 48 53.8 45.5 56.4 41.9 58 38 58 34.1 58 30.5 56.4 28 53.8 25.5 56.4 21.9 58 18 58 17.4 58 16.8 57.9 16.1 57.9L24 83 72 83 79.9 57.9C79.2 57.9 78.6 58 78 58 74.1 58 70.5 56.4 68 53.8Z" stroke="#595959" fill="#C00000"/><path d="M68.4 33.5 64.2 37.5C63.4 38.3 62.1 38.2 61.4 37.4 61 37 60.9 36.5 60.9 36 60.9 35.5 61.1 34.9 61.5 34.5L65.7 30.5C66.5 29.7 67.8 29.8 68.5 30.6 69.2 31.4 69.2 32.7 68.4 33.5ZM54.4 24.7C54 25.1 53.5 25.2 53 25.2 52.5 25.2 51.9 25 51.5 24.6L47.5 20.4C46.7 19.6 46.8 18.3 47.6 17.6 48.4 16.8 49.7 16.9 50.4 17.7L54.4 21.9C55.2 22.7 55.2 23.9 54.4 24.7ZM43.4 40.5C42.6 41.3 41.3 41.2 40.6 40.4L36.6 36.2C35.8 35.4 35.9 34.1 36.7 33.4 37.1 33 37.6 32.9 38.1 32.9 38.6 32.9 39.2 33.1 39.6 33.5L43.6 37.7C44.2 38.4 44.2 39.7 43.4 40.5ZM32.6 26.5 28.4 30.5C27.6 31.3 26.3 31.2 25.6 30.4 24.8 29.6 24.9 28.3 25.7 27.6L29.9 23.6C30.7 22.8 32 22.9 32.7 23.7 33.1 24.1 33.2 24.6 33.2 25.1 33.2 25.5 33 26.1 32.6 26.5ZM80.5 34.3C76.3 20.8 63.3 11 48 11 32.7 11 19.7 20.8 15.5 34.3 11.2 35.4 8 39.3 8 44 8 49.5 12.5 54 18 54 23.5 54 28 49.5 28 44 28 49.5 32.5 54 38 54 43.5 54 48 49.5 48 44 48 49.5 52.5 54 58 54 63.5 54 68 49.5 68 44 68 49.5 72.5 54 78 54 83.5 54 88 49.5 88 44 88 39.3 84.8 35.4 80.5 34.3Z" stroke="#595959" fill="#C00000"/></svg>